<svg width="24" height="24" viewBox="0 0 24 24" fill="none" xmlns="http://www.w3.org/2000/svg">
<path fill-rule="evenodd" clip-rule="evenodd" d="M12 23.9166C5.41865 23.9166 0.083374 18.5814 0.083374 12C0.083374 5.41859 5.41865 0.083313 12 0.083313C18.5814 0.083313 23.9167 5.41859 23.9167 12C23.9167 18.5814 18.5814 23.9166 12 23.9166ZM12 21.75C17.3848 21.75 21.75 17.3848 21.75 12C21.75 6.6152 17.3848 2.24998 12 2.24998C6.61527 2.24998 2.25005 6.6152 2.25005 12C2.25005 17.3848 6.61527 21.75 12 21.75ZM17.4167 10.9166H13.0834V6.58331H10.9167V10.9166H6.58337V13.0833H10.9167V17.4166H13.0834V13.0833H17.4167V10.9166Z" fill="white"/>
</svg>
