<svg width="12" height="16" viewBox="0 0 12 16" fill="none" xmlns="http://www.w3.org/2000/svg">
<path fill-rule="evenodd" clip-rule="evenodd" d="M4.96927 14.5809L6 15.4995L7.03073 14.5809C10.3221 11.6477 12 9.04211 12 6.60311C12 3.14043 9.34263 0.5 6 0.5C2.65737 0.5 0 3.14043 0 6.60311C0 9.04211 1.67789 11.6477 4.96927 14.5809ZM6 2.5C8.24092 2.5 10 4.24787 10 6.60311C10 8.27275 8.702 10.3469 6 12.8171C3.298 10.3469 2 8.27275 2 6.60311C2 4.24787 3.75908 2.5 6 2.5ZM6 3.5C7.65685 3.5 9 4.84315 9 6.5C9 8.15685 7.65685 9.5 6 9.5C4.34315 9.5 3 8.15685 3 6.5C3 4.84315 4.34315 3.5 6 3.5ZM5 6.5C5 5.94772 5.44772 5.5 6 5.5C6.55228 5.5 7 5.94772 7 6.5C7 7.05228 6.55228 7.5 6 7.5C5.44772 7.5 5 7.05228 5 6.5Z" fill="#656B82"/>
</svg>
