<svg width="20" height="20" viewBox="0 0 20 20" fill="none" xmlns="http://www.w3.org/2000/svg">
<g clip-path="url(#clip0)">
<path d="M9.23168 0.0812939L9.22043 0.0137939C7.11668 0.177544 5.06043 1.00504 3.37793 2.49129L10.0004 9.11504L12.2429 6.87254C10.5579 4.92379 9.58168 2.14629 9.23168 0.0812939Z" fill="white"/>
<path d="M10.4941 0C10.8279 1.85625 11.6829 4.27875 13.1291 5.98625L16.6229 2.4925C14.8641 0.93875 12.6966 0.1075 10.4941 0Z" fill="white"/>
<path d="M17.5084 3.37744L14.0146 6.87119C15.7209 8.31744 18.1434 9.17369 19.9996 9.50619C19.8921 7.30369 19.0621 5.13619 17.5084 3.37744Z" fill="white"/>
<path d="M2.91016 2.91494L2.91266 2.91244L2.91516 2.90869L2.91016 2.91494Z" fill="white"/>
<path d="M2.49117 3.37744C1.00492 5.05994 0.177422 7.11619 0.0136719 9.21994L0.0811719 9.23119C2.14617 9.58119 4.92367 10.5574 6.87242 12.2424L9.11492 9.99994L2.49117 3.37744Z" fill="white"/>
<path d="M0 10.4938C0.1075 12.6963 0.93875 14.8638 2.4925 16.6238L5.98625 13.13C4.27875 11.6825 1.85625 10.8263 0 10.4938Z" fill="white"/>
<path d="M6.87168 14.0138L3.37793 17.5088C5.13668 19.0625 7.30543 19.8925 9.50668 20C9.17293 18.1438 8.31793 15.7213 6.87168 14.0138Z" fill="white"/>
<path d="M10 10.8862L7.75879 13.1275C9.44254 15.0762 10.4175 17.8537 10.7688 19.9175L10.78 19.985C12.8838 19.8212 14.94 18.9937 16.6225 17.5075L10 10.8862Z" fill="white"/>
<path d="M19.9192 10.7688C17.8542 10.4175 15.0767 9.44254 13.128 7.75879L10.8867 10L17.5092 16.6225C18.9955 14.94 19.8242 12.8838 19.9867 10.78L19.9192 10.7688Z" fill="white"/>
</g>
<defs>
<clipPath id="clip0">
<rect width="20" height="20" fill="white"/>
</clipPath>
</defs>
</svg>
