<svg version="1.2" baseProfile="tiny-ps" xmlns="http://www.w3.org/2000/svg" viewBox="0 0 26 26" width="26" height="26">
	<path fill="#ffffff" d="M22.75 6.5L22.75 21.67C22.75 21.95 22.69 22.23 22.59 22.5C22.48 22.76 22.32 23 22.12 23.2C21.91 23.4 21.68 23.56 21.41 23.67C21.15 23.78 20.87 23.83 20.58 23.83L5.42 23.83C4.21 23.83 3.25 22.86 3.25 21.67L3.25 6.5C3.25 6.22 3.31 5.93 3.41 5.67C3.52 5.41 3.68 5.17 3.88 4.97C4.09 4.77 4.32 4.61 4.59 4.5C4.85 4.39 5.13 4.33 5.42 4.33L6.5 4.33L6.5 2.17L8.67 2.17L8.67 4.33L17.33 4.33L17.33 2.17L19.5 2.17L19.5 4.33L20.58 4.33C20.87 4.33 21.15 4.39 21.41 4.5C21.68 4.61 21.91 4.77 22.12 4.97C22.32 5.17 22.48 5.41 22.59 5.67C22.69 5.93 22.75 6.22 22.75 6.5ZM20.58 21.67L20.58 10.83L5.42 10.83L5.42 21.67L20.58 21.67ZM5.42 8.67L20.58 8.67L20.58 6.5L5.42 6.5L5.42 8.67ZM7.58 13L9.75 13L9.75 15.17L7.58 15.17L7.58 13ZM16.25 15.17L16.25 13L18.42 13L18.42 15.17L16.25 15.17ZM11.92 15.17L11.92 13L14.08 13L14.08 15.17L11.92 15.17ZM7.58 17.33L9.75 17.33L9.75 19.5L7.58 19.5L7.58 17.33ZM16.25 19.5L16.25 17.33L18.42 17.33L18.42 19.5L16.25 19.5ZM11.92 19.5L11.92 17.33L14.08 17.33L14.08 19.5L11.92 19.5Z" />
</svg>