<svg width="16" height="17" viewBox="0 0 16 17" fill="none" xmlns="http://www.w3.org/2000/svg">
<path fill-rule="evenodd" clip-rule="evenodd" d="M7.61011 8.88848C7.06856 8.34642 6.62103 7.76069 6.38355 7.28618C6.30558 7.13037 6.25708 6.99967 6.23578 6.90623L6.71611 6.42561C6.82148 6.32015 6.87213 6.26881 6.93761 6.2C7.07631 6.05423 7.19195 5.92102 7.29368 5.78393C7.75135 5.16719 7.92143 4.4958 7.37967 3.89123C6.35391 2.45638 5.66385 1.56892 5.22143 1.1319C4.30856 0.230181 2.82132 0.35098 2.02965 1.13101C1.64738 1.50766 1.51744 1.63753 1.12492 2.0362C-1.16743 4.32966 0.199732 9.07107 3.81206 12.6868C7.42377 16.3019 12.1655 17.6699 14.464 15.3703C14.8248 15.0225 15.1331 14.714 15.3771 14.4562C16.1494 13.6399 16.266 12.2168 15.3712 11.287C14.9457 10.8449 14.0995 10.1883 12.6028 9.11748C12.0553 8.63212 11.415 8.73741 10.8461 9.11061C10.5898 9.27872 10.4096 9.44313 10.0701 9.78294L9.59022 10.263C9.4969 10.2417 9.36638 10.1933 9.21082 10.1154C8.73652 9.87783 8.15126 9.43014 7.61011 8.88848ZM10.888 11.7925L11.484 11.1962C11.5858 11.0943 11.6663 11.0157 11.7329 10.954C12.9396 11.8239 13.6458 12.3771 13.931 12.6735C14.028 12.7742 14.0101 12.9923 13.9251 13.0821C13.7045 13.3152 13.4169 13.603 13.0633 13.9441C11.7585 15.2492 8.16102 14.2114 5.22611 11.2737C2.29008 8.33491 1.25247 4.7364 2.54396 3.44426C2.93445 3.04769 3.05726 2.92494 3.43253 2.5552C3.49211 2.49649 3.738 2.47652 3.81674 2.55431C4.12478 2.85859 4.70156 3.59371 5.54461 4.76293C5.52731 4.78177 5.50896 4.80138 5.48955 4.82178C5.43885 4.87506 5.39613 4.91836 5.30206 5.01252L4.70644 5.60845C3.55963 6.75511 4.46968 8.57358 6.19606 10.3016C7.92145 12.0286 9.74117 12.9399 10.888 11.7925Z" fill="#656B82"/>
</svg>
