<svg width="26" height="26" viewBox="0 0 26 26" fill="none" xmlns="http://www.w3.org/2000/svg">
    <path d="M12.9997 24.9167C6.41828 24.9167 1.08301 19.5814 1.08301 13C1.08301 6.41865 6.41828 1.08337 12.9997 1.08337C19.5811 1.08337 24.9163 6.41865 24.9163 13C24.9163 19.5814 19.5811 24.9167 12.9997 24.9167ZM21.0158 18.5517C22.109 16.9762 22.7497 15.0629 22.7497 13C22.7497 7.61526 18.3845 3.25004 12.9997 3.25004C7.6149 3.25004 3.24968 7.61526 3.24968 13C3.24968 15.0629 3.89034 16.9762 4.98356 18.5517C6.2028 16.9413 9.06783 16.25 12.9997 16.25C16.9315 16.25 19.7966 16.9413 21.0158 18.5517ZM19.4614 20.3015C19.1443 19.1613 16.8665 18.4167 12.9997 18.4167C9.13285 18.4167 6.85501 19.1613 6.53794 20.3014C8.25825 21.8251 10.5209 22.75 12.9997 22.75C15.4784 22.75 17.7411 21.8251 19.4614 20.3015ZM12.9997 6.50004C10.377 6.50004 8.66634 8.40211 8.66634 10.8334C8.66634 14.5464 10.5739 16.25 12.9997 16.25C15.4026 16.25 17.333 14.603 17.333 11.05C17.333 8.58175 15.615 6.50004 12.9997 6.50004ZM10.833 10.8334C10.833 13.2917 11.7194 14.0834 12.9997 14.0834C14.2755 14.0834 15.1663 13.3233 15.1663 11.05C15.1663 9.69633 14.3166 8.66671 12.9997 8.66671C11.6279 8.66671 10.833 9.55052 10.833 10.8334Z" fill="#ffffff"/>
</svg>
