<svg version="1.2" baseProfile="tiny-ps" xmlns="http://www.w3.org/2000/svg" viewBox="0 0 24 24" width="26" height="26">
	<path fill="#ffffff" d="M12 2C13.31 2 14.61 2.26 15.83 2.76C17.04 3.26 18.14 4 19.07 4.93C20 5.86 20.74 6.96 21.24 8.17C21.74 9.39 22 10.69 22 12C22 13.31 21.74 14.61 21.24 15.83C20.74 17.04 20 18.14 19.07 19.07C18.14 20 17.04 20.74 15.83 21.24C14.61 21.74 13.31 22 12 22C10.69 22 9.39 21.74 8.17 21.24C6.96 20.74 5.86 20 4.93 19.07C4 18.14 3.26 17.04 2.76 15.83C2.26 14.61 2 13.31 2 12C2 10.69 2.26 9.39 2.76 8.17C3.26 6.96 4 5.86 4.93 4.93C5.86 4 6.96 3.26 8.17 2.76C9.39 2.26 10.69 2 12 2ZM12 20C13.86 20 15.57 19.36 16.93 18.28C16.5 17.38 13.88 16.5 12 16.5C10.12 16.5 7.5 17.38 7.07 18.28C8.43 19.36 10.14 20 12 20ZM20 12C20 7.59 16.41 4 12 4C7.59 4 4 7.59 4 12C4 13.82 4.62 15.5 5.64 16.83C7.07 15.09 10.54 14.5 12 14.5C13.46 14.5 16.93 15.09 18.36 16.83C19.38 15.5 20 13.82 20 12ZM15.5 9.5C15.5 11.44 13.94 13 12 13C10.06 13 8.5 11.44 8.5 9.5C8.5 7.56 10.06 6 12 6C13.94 6 15.5 7.56 15.5 9.5ZM12.57 10.89C12.76 10.81 12.92 10.7 13.06 10.56C13.2 10.42 13.31 10.26 13.39 10.07C13.46 9.89 13.5 9.7 13.5 9.5C13.5 9.3 13.46 9.11 13.39 8.93C13.31 8.74 13.2 8.58 13.06 8.44C12.92 8.3 12.76 8.19 12.57 8.11C12.39 8.04 12.2 8 12 8C11.8 8 11.61 8.04 11.43 8.11C11.24 8.19 11.08 8.3 10.94 8.44C10.8 8.58 10.69 8.74 10.61 8.93C10.54 9.11 10.5 9.3 10.5 9.5C10.5 9.7 10.54 9.89 10.61 10.07C10.69 10.26 10.8 10.42 10.94 10.56C11.08 10.7 11.24 10.81 11.43 10.89C11.61 10.96 11.8 11 12 11C12.2 11 12.39 10.96 12.57 10.89Z" />
</svg>