<svg width="16" height="17" viewBox="0 0 16 17" fill="none" xmlns="http://www.w3.org/2000/svg">
<path fill-rule="evenodd" clip-rule="evenodd" d="M8 16.5C3.58172 16.5 0 12.9183 0 8.5C0 4.08172 3.58172 0.5 8 0.5C12.4183 0.5 16 4.08172 16 8.5C16 12.9183 12.4183 16.5 8 16.5ZM8 14.5C11.3137 14.5 14 11.8137 14 8.5C14 5.18629 11.3137 2.5 8 2.5C4.68629 2.5 2 5.18629 2 8.5C2 11.8137 4.68629 14.5 8 14.5ZM3 8.5C3 11.2614 5.23858 13.5 8 13.5C10.7614 13.5 13 11.2614 13 8.5C13 5.73858 10.7614 3.5 8 3.5C5.23858 3.5 3 5.73858 3 8.5ZM8 11.5C9.65685 11.5 11 10.1569 11 8.5C11 6.84315 9.65685 5.5 8 5.5C6.34315 5.5 5 6.84315 5 8.5C5 10.1569 6.34315 11.5 8 11.5ZM6 8.5C6 9.60457 6.89543 10.5 8 10.5C9.10457 10.5 10 9.60457 10 8.5C10 7.39543 9.10457 6.5 8 6.5C6.89543 6.5 6 7.39543 6 8.5Z" fill="#656B82"/>
</svg>
