<svg width="26" height="26" viewBox="0 0 26 26" fill="none" xmlns="http://www.w3.org/2000/svg">
<path fill-rule="evenodd" clip-rule="evenodd" d="M14.083 7.58337V3.30955C18.958 3.84844 22.7497 7.98144 22.7497 13C22.7497 18.3848 18.3844 22.75 12.9997 22.75C7.6149 22.75 3.24967 18.3848 3.24967 13C3.24967 10.3716 4.2931 7.91126 6.11834 6.09282L4.58913 4.5579C2.35987 6.77887 1.08301 9.78966 1.08301 13C1.08301 19.5814 6.41828 24.9167 12.9997 24.9167C19.5811 24.9167 24.9163 19.5814 24.9163 13C24.9163 6.41865 19.5811 1.08337 12.9997 1.08337H11.9163V7.58337H14.083ZM12.9997 10.8334C12.8056 10.8334 12.6175 10.8589 12.4385 10.9068L8.34905 6.81734L6.81699 8.34941L10.9064 12.4388C10.8585 12.6178 10.833 12.806 10.833 13C10.833 14.1967 11.8031 15.1667 12.9997 15.1667C14.1963 15.1667 15.1664 14.1967 15.1664 13C15.1664 11.8034 14.1963 10.8334 12.9997 10.8334Z" fill="white"/>
</svg>
